<?xml version="1.0" standalone="no"?><!DOCTYPE svg PUBLIC "-//W3C//DTD SVG 1.1//EN" "http://www.w3.org/Graphics/SVG/1.1/DTD/svg11.dtd"><svg width="100%" height="100%" viewBox="0 0 256 256" version="1.1" xmlns="http://www.w3.org/2000/svg" xmlns:xlink="http://www.w3.org/1999/xlink" xml:space="preserve" style="fill-rule:evenodd;clip-rule:evenodd;stroke-linejoin:round;stroke-miterlimit:1.41421;"><g id="Capa1"><circle cx="128" cy="128" r="128" style="fill:#002f3f;"/><path d="M104.797,208.5l6.277,0l2.018,-0.242l1.793,-0.242l2.018,-0.485l2.242,-0.726l1.345,-0.485l2.242,-0.969l2.69,-1.211l2.466,-1.211l2.018,-1.211l1.793,-0.969l1.569,-1.211l1.569,-1.453l1.57,-1.211l1.793,-1.938l1.121,-0.969l1.569,-1.695l1.57,-1.453l1.345,-1.454l1.345,-1.695l1.121,-1.695l1.345,-1.696l1.121,-1.695l1.345,-1.696l1.345,-1.938l0.897,-0.968l0.448,0l0,1.453l-0.224,2.422l0.224,2.18l0.224,3.149l0.673,2.906l0.448,2.422l0.897,2.907l1.121,2.664l1.12,2.18l2.242,3.391l1.57,1.453l1.569,1.211l1.793,0.969l4.035,0.969l5.829,0l2.466,-0.485l3.587,-0.968l1.793,-0.727l2.018,-0.969l3.587,-1.938l3.587,-2.422l1.569,-1.211l1.569,-1.453l1.57,-1.695l1.793,-1.696l4.035,-4.36l1.345,-1.695l1.121,-1.938l1.121,-1.695l1.345,-1.696l1.121,-1.695l3.363,-5.813l2.017,-3.876l1.121,-1.937l0.897,-1.696l0.897,-1.937l0.896,-2.18l0.673,-1.938l0.897,-2.18l0.896,-1.938l0.673,-2.179l0,-2.907l-1.569,-2.422l-2.69,-0.727l-2.018,1.454l-6.277,13.563l-1.121,1.938l-2.242,3.391l-2.69,3.391l-1.345,1.937l-0.897,0.969l-1.345,2.18l-4.259,4.602l-1.794,1.696l-2.241,2.18l-2.018,1.937l-1.569,1.211l-1.57,0.969l-2.017,0.969l-1.794,0.727l-2.017,0.242l-2.018,0l-1.793,-0.727l-2.018,-2.18l-1.569,-2.422l-0.673,-2.18l-0.224,-2.18l0,-2.179l0.224,-1.938l0,-4.602l0.224,-2.18l0.225,-3.149l0.448,-2.906l0.448,-2.422l0.449,-3.149l0.448,-2.907l0.897,-4.359l0.672,-2.18l0.449,-1.938l0.672,-2.18l0.897,-4.36l0.448,-2.906l0.673,-3.149l0.448,-2.18l0.673,-2.18l0.672,-2.422l0.673,-3.148l0.672,-2.665l0.449,-2.18l0.672,-2.18l0.449,-2.179l0.672,-1.938l1.345,-4.36l0.224,-2.18l0.673,-2.906l0.897,-3.391l0.448,-1.453l0.673,-2.423l0.672,-2.179l0.448,-1.938l1.346,-4.36l0.448,-2.18l0.897,-2.664l1.345,-4.844l0.896,-2.665l0.449,-2.179l0.672,-1.938l0.673,-2.18l0.448,-2.18l0.449,-1.938l1.345,-4.359l0.448,-2.18l0.448,-1.938l0.673,-2.18l0.897,-4.36l0,-1.937l-0.673,-1.938l-1.345,-1.695l-1.569,-1.211l-2.018,-0.727l-1.793,-0.727l-2.018,-0.484l-2.242,0l-1.793,0.242l-1.794,0.727l-1.345,1.695l-0.448,1.696l-0.673,1.937l-0.672,2.665l-0.448,1.937l-1.346,4.36l-0.896,3.149l-0.673,2.906l-0.897,4.36l-0.672,2.18l-0.673,1.938l-0.672,2.18l-0.449,2.179l-0.224,1.938l-0.672,2.664l-0.449,1.211l-0.672,2.665l-0.224,1.937l-0.673,2.18l-0.448,2.18l-0.897,3.149l-0.672,2.906l-0.449,2.18l-1.345,4.36l-0.672,2.422l-0.225,1.211l-0.672,2.422l-1.345,4.36l-0.224,2.18l-0.449,2.18l-0.672,1.938l-0.449,2.179l-0.672,2.18l-0.673,3.149l-0.672,2.907l-1.345,4.359l-0.673,1.938l-0.672,2.18l-0.449,2.18l-0.672,1.937l-0.673,2.423l-0.448,1.453l-0.673,2.422l-0.672,1.938l-1.121,2.18l-0.449,1.453l-1.12,2.18l-1.121,1.695l-1.121,1.938l-2.466,3.633l-1.794,2.18l-1.793,2.664l-0.897,1.211l-1.569,1.938l-1.345,1.695l-1.569,1.211l-3.139,2.907l-1.345,1.453l-1.569,1.211l-1.794,1.453l-6.725,4.602l-2.466,1.211l-2.69,1.212l-2.018,0.726l-2.018,0.485l-1.793,0.242l-2.018,0l-2.017,-0.727l-2.69,-1.211l-2.691,-2.422l-2.017,-3.149l-0.897,-2.906l-0.672,-2.422l-0.225,-3.149l0.449,-8.235l0.448,-3.876l0.449,-3.148l1.569,-5.087l0.672,-2.906l0.673,-2.422l0.672,-3.149l0.673,-2.907l2.242,-10.899l1.345,-4.118l0.897,-4.359l0.672,-1.938l0.448,-2.18l1.346,-4.36l1.12,-6.055l0.673,-2.18l0.448,-2.18l0.673,-2.422l0.448,-1.453l1.345,-4.844l0.224,-1.453l0.673,-2.423l0.448,-2.179l1.345,-4.36l0.673,-2.907l0.673,-3.148l0.672,-2.18l0.897,-4.36l0.448,-1.938l2.018,-6.539l0.672,-3.149l0.673,-2.907l0.672,-2.18l0.449,-2.179l1.569,-5.087l0.897,-3.149l0.672,-2.179l0.449,-2.18l-0.449,-1.938l-2.017,-1.938l-3.139,-1.937l-3.811,-0.727l-3.587,0.484l-2.914,1.938l-1.794,2.422l-1.12,1.696l-2.691,3.391l-1.569,1.453l-1.345,1.211l-1.569,1.453l-1.57,1.696l-2.241,1.937l-2.242,1.696l-1.794,1.211l-3.362,1.937l-2.018,1.454l-1.793,1.211l-2.242,1.453l-2.69,1.211l-1.345,0.727l-2.466,1.211l-3.811,1.937l-1.345,0.485l-2.018,0.969l-2.018,0.726l-3.587,1.938l-2.69,1.211l-2.466,1.211l-2.241,0.969l-2.466,1.211l-2.691,1.211l-1.793,1.211l-1.794,0.969l-2.017,1.453l-1.121,0.727l-2.018,1.695l-2.017,1.938l-2.018,2.18l-1.345,1.695l-1.569,2.665l-1.569,2.422l-1.121,2.18l-0.897,2.906l-0.673,2.907l-0.448,2.18l0,4.359l0.448,4.36l0.449,2.18l1.793,3.875l1.121,1.938l1.121,1.695l1.345,1.696l1.569,1.453l3.139,2.422l1.793,0.969l2.018,0.969l1.793,0.727l6.053,1.453l2.018,0l2.69,-0.727l2.242,-2.422l0.896,-3.875l-1.12,-3.149l-2.242,-1.695l-2.018,-0.727l-1.793,-1.211l-1.794,-1.453l-1.345,-1.696l-1.121,-1.937l-0.448,-2.18l-0.224,-2.18l0,-2.422l0.224,-2.422l0.448,-2.18l0.673,-1.938l0.897,-1.938l1.12,-1.937l1.346,-1.696l1.345,-1.211l1.569,-1.453l1.793,-1.453l2.466,-1.696l2.466,-1.453l2.018,-0.969l1.793,-0.969l1.57,-1.211l3.586,-1.938l1.57,-0.968l1.793,-0.727l4.035,-1.938l1.794,-0.969l3.363,-2.179l5.156,-3.149l1.569,-1.211l1.793,-1.211l1.345,-1.453l1.57,-1.454l1.793,-1.695l0.897,-0.969l1.793,-1.696l1.121,-0.726l0.224,1.211l-0.448,2.422l-0.448,2.18l-0.673,1.938l-1.345,4.359l-0.448,2.18l-2.466,7.993l-0.449,2.18l-0.448,1.938l-0.897,4.359l-0.672,2.18l-0.449,2.18l-0.896,1.938l-0.673,1.938l-0.448,2.179l-0.673,2.18l-0.672,2.907l-0.673,3.149l-0.448,2.18l-0.673,2.179l-0.448,2.18l-0.673,1.938l-0.672,2.18l-1.121,6.055l-0.673,2.422l-0.672,2.907l-0.673,3.148l-0.672,2.18l-0.673,2.422l-0.672,1.938l-0.897,3.875l-0.224,2.18l-0.673,2.422l-0.448,2.18l-0.673,1.938l-0.224,2.18l-0.224,2.422l-0.448,4.36l-0.897,4.36l0,6.781l0.224,2.18l0,4.602l0.224,2.18l0.449,2.18l0.672,2.18l0.673,1.938l0.896,2.179l0.897,1.696l1.121,1.938l1.345,1.695l3.139,2.907l1.793,1.211l2.466,1.211l2.69,1.211l2.466,0.726l2.018,0.485l2.017,0.242Z" style="fill:#fff;fill-rule:nonzero;"/></g></svg>