<?xml version="1.0" standalone="no"?><!DOCTYPE svg PUBLIC "-//W3C//DTD SVG 1.1//EN" "http://www.w3.org/Graphics/SVG/1.1/DTD/svg11.dtd"><svg width="100%" height="100%" viewBox="0 0 226 48" version="1.1" xmlns="http://www.w3.org/2000/svg" xmlns:xlink="http://www.w3.org/1999/xlink" xml:space="preserve" style="fill-rule:evenodd;clip-rule:evenodd;stroke-linejoin:round;stroke-miterlimit:1.41421;"><g><path d="M20.515,47.024l1.865,0l0.599,-0.066l0.533,-0.067l0.6,-0.133l0.666,-0.2l0.399,-0.133l0.666,-0.266l0.8,-0.333l0.732,-0.333l0.6,-0.334l0.533,-0.266l0.466,-0.333l0.466,-0.4l0.467,-0.333l0.532,-0.532l0.333,-0.267l0.467,-0.466l0.466,-0.4l0.4,-0.399l0.399,-0.467l0.333,-0.466l0.4,-0.466l0.333,-0.466l0.4,-0.467l0.399,-0.533l0.267,-0.266l0.133,0l0,0.4l-0.067,0.666l0.067,0.599l0.066,0.866l0.2,0.799l0.133,0.666l0.267,0.8l0.333,0.732l0.333,0.6l0.666,0.932l0.466,0.4l0.467,0.333l0.532,0.266l1.199,0.267l1.732,0l0.733,-0.133l1.065,-0.267l0.533,-0.2l0.6,-0.266l1.065,-0.533l1.066,-0.666l0.466,-0.333l0.467,-0.4l0.466,-0.466l0.533,-0.466l1.199,-1.199l0.399,-0.466l0.333,-0.533l0.333,-0.466l0.4,-0.467l0.333,-0.466l0.999,-1.598l0.6,-1.066l0.333,-0.533l0.266,-0.466l0.267,-0.533l0.266,-0.6l0.2,-0.532l0.266,-0.6l0.267,-0.533l0.2,-0.599l0,-0.799l-0.467,-0.667l-0.799,-0.199l-0.599,0.399l-1.865,3.73l-0.334,0.533l-0.666,0.933l-0.799,0.932l-0.4,0.533l-0.266,0.266l-0.4,0.6l-1.265,1.265l-0.533,0.467l-0.666,0.599l-0.6,0.533l-0.466,0.333l-0.466,0.266l-0.599,0.267l-0.533,0.2l-0.6,0.066l-0.599,0l-0.533,-0.2l-0.6,-0.599l-0.466,-0.666l-0.2,-0.6l-0.066,-0.599l0,-0.599l0.066,-0.533l0,-1.266l0.067,-0.599l0.067,-0.866l0.133,-0.8l0.133,-0.666l0.133,-0.865l0.133,-0.8l0.267,-1.199l0.2,-0.599l0.133,-0.533l0.2,-0.599l0.266,-1.199l0.133,-0.8l0.2,-0.866l0.133,-0.599l0.2,-0.599l0.2,-0.667l0.2,-0.865l0.2,-0.733l0.133,-0.6l0.2,-0.599l0.133,-0.599l0.2,-0.533l0.399,-1.199l0.067,-0.6l0.2,-0.799l0.266,-0.933l0.133,-0.399l0.2,-0.666l0.2,-0.6l0.133,-0.533l0.4,-1.198l0.133,-0.6l0.267,-0.733l0.399,-1.332l0.267,-0.732l0.133,-0.6l0.2,-0.533l0.2,-0.599l0.133,-0.6l0.133,-0.533l0.4,-1.198l0.133,-0.6l0.133,-0.533l0.2,-0.599l0.266,-1.199l0,-0.533l-0.2,-0.533l-0.399,-0.466l-0.466,-0.333l-0.6,-0.2l-0.533,-0.2l-0.599,-0.133l-0.666,0l-0.533,0.067l-0.533,0.199l-0.4,0.467l-0.133,0.466l-0.2,0.533l-0.199,0.732l-0.134,0.533l-0.399,1.199l-0.267,0.866l-0.2,0.799l-0.266,1.199l-0.2,0.6l-0.2,0.533l-0.199,0.599l-0.134,0.6l-0.066,0.532l-0.2,0.733l-0.133,0.333l-0.2,0.733l-0.067,0.533l-0.2,0.599l-0.133,0.6l-0.266,0.865l-0.2,0.8l-0.133,0.599l-0.4,1.199l-0.2,0.666l-0.066,0.333l-0.2,0.666l-0.4,1.199l-0.066,0.6l-0.134,0.599l-0.199,0.533l-0.134,0.599l-0.199,0.6l-0.2,0.866l-0.2,0.799l-0.4,1.199l-0.2,0.533l-0.199,0.599l-0.134,0.6l-0.199,0.533l-0.2,0.666l-0.133,0.399l-0.2,0.666l-0.2,0.533l-0.333,0.6l-0.133,0.399l-0.333,0.6l-0.333,0.466l-0.333,0.533l-0.733,0.999l-0.533,0.6l-0.533,0.732l-0.266,0.333l-0.467,0.533l-0.399,0.466l-0.466,0.333l-0.933,0.8l-0.4,0.399l-0.466,0.333l-0.533,0.4l-1.998,1.266l-0.733,0.333l-0.799,0.333l-0.599,0.199l-0.6,0.134l-0.533,0.066l-0.599,0l-0.6,-0.2l-0.799,-0.333l-0.799,-0.666l-0.6,-0.866l-0.266,-0.799l-0.2,-0.666l-0.066,-0.866l0.133,-2.264l0.133,-1.066l0.133,-0.866l0.466,-1.399l0.2,-0.799l0.2,-0.666l0.2,-0.866l0.2,-0.799l0.666,-2.998l0.399,-1.132l0.267,-1.199l0.2,-0.533l0.133,-0.599l0.4,-1.199l0.333,-1.665l0.199,-0.6l0.134,-0.599l0.199,-0.666l0.134,-0.4l0.399,-1.332l0.067,-0.4l0.2,-0.666l0.133,-0.599l0.4,-1.199l0.199,-0.799l0.2,-0.866l0.2,-0.6l0.266,-1.199l0.134,-0.533l0.599,-1.798l0.2,-0.866l0.2,-0.799l0.2,-0.6l0.133,-0.599l0.466,-1.399l0.267,-0.866l0.199,-0.599l0.134,-0.6l-0.134,-0.532l-0.599,-0.533l-0.933,-0.533l-1.132,-0.2l-1.066,0.133l-0.866,0.533l-0.532,0.666l-0.333,0.466l-0.8,0.933l-0.466,0.4l-0.4,0.333l-0.466,0.399l-0.466,0.466l-0.666,0.533l-0.666,0.467l-0.533,0.333l-0.999,0.532l-0.6,0.4l-0.533,0.333l-0.666,0.4l-0.799,0.333l-0.4,0.2l-0.732,0.333l-1.133,0.533l-0.399,0.133l-0.6,0.266l-0.599,0.2l-1.066,0.533l-0.799,0.333l-0.733,0.333l-0.666,0.266l-0.732,0.333l-0.8,0.333l-0.533,0.333l-0.532,0.267l-0.6,0.399l-0.333,0.2l-0.599,0.467l-0.6,0.532l-0.599,0.6l-0.4,0.466l-0.466,0.733l-0.467,0.666l-0.333,0.599l-0.266,0.8l-0.2,0.799l-0.133,0.599l0,1.199l0.133,1.199l0.133,0.6l0.533,1.065l0.333,0.533l0.333,0.466l0.4,0.467l0.466,0.399l0.933,0.666l0.533,0.267l0.599,0.266l0.533,0.2l1.798,0.4l0.6,0l0.799,-0.2l0.666,-0.666l0.267,-1.066l-0.333,-0.866l-0.667,-0.466l-0.599,-0.2l-0.533,-0.333l-0.533,-0.399l-0.399,-0.467l-0.333,-0.533l-0.134,-0.599l-0.066,-0.599l0,-0.667l0.066,-0.666l0.134,-0.599l0.199,-0.533l0.267,-0.533l0.333,-0.533l0.4,-0.466l0.399,-0.333l0.466,-0.4l0.533,-0.399l0.733,-0.466l0.733,-0.4l0.599,-0.267l0.533,-0.266l0.466,-0.333l1.066,-0.533l0.466,-0.266l0.533,-0.2l1.199,-0.533l0.533,-0.266l0.999,-0.6l1.532,-0.866l0.466,-0.333l0.533,-0.333l0.4,-0.399l0.466,-0.4l0.533,-0.466l0.266,-0.267l0.533,-0.466l0.333,-0.2l0.067,0.333l-0.134,0.666l-0.133,0.6l-0.2,0.533l-0.399,1.199l-0.133,0.599l-0.733,2.198l-0.133,0.599l-0.134,0.533l-0.266,1.199l-0.2,0.6l-0.133,0.599l-0.266,0.533l-0.2,0.533l-0.134,0.599l-0.199,0.6l-0.2,0.799l-0.2,0.866l-0.133,0.599l-0.2,0.6l-0.133,0.599l-0.2,0.533l-0.2,0.6l-0.333,1.665l-0.2,0.666l-0.2,0.799l-0.199,0.866l-0.2,0.6l-0.2,0.666l-0.2,0.532l-0.266,1.066l-0.067,0.6l-0.2,0.666l-0.133,0.599l-0.2,0.533l-0.066,0.599l-0.067,0.667l-0.133,1.198l-0.267,1.199l0,1.865l0.067,0.6l0,1.265l0.067,0.6l0.133,0.599l0.2,0.6l0.199,0.533l0.267,0.599l0.266,0.466l0.333,0.533l0.4,0.466l0.933,0.8l0.532,0.333l0.733,0.333l0.799,0.333l0.733,0.2l0.599,0.133l0.6,0.066Z" style="fill:#fff;fill-opacity:0.501961;fill-rule:nonzero;"/><path d="M63.543,0.533l-0.533,0.266l-0.399,0.467l-0.533,1.065l-0.6,1.799l-0.2,0.532l-0.199,0.6l-0.267,0.533l-0.2,0.599l-0.2,0.533l-0.266,0.6l-0.2,0.532l-0.266,0.6l-0.2,0.533l-0.133,0.599l-0.2,0.666l-0.133,0.4l-0.2,0.666l-0.2,0.599l-0.4,1.133l-0.266,0.599l-0.133,0.533l-0.4,1.199l-0.2,0.533l-0.399,1.199l-0.134,0.533l-0.199,0.599l-0.333,1.199l-0.2,0.6l-0.267,1.198l-0.199,0.8l-0.267,0.866l-0.266,1.199l-0.2,0.599l-0.133,0.599l-0.2,0.6l-0.133,0.599l-0.067,0.6l-0.266,1.199l-0.2,0.666l-0.133,0.866l-0.4,2.264l-0.133,0.866l-0.067,0.666l-0.066,0.6l0,0.599l-0.134,1.199l-0.066,0.666l-0.067,0.6l0,0.599l-0.067,0.6l0.067,0.666l0.067,0.599l0.133,0.533l0.266,1.199l0.2,0.599l0.2,0.533l0.333,0.6l0.333,0.466l0.4,0.533l0.466,0.399l0.466,0.467l0.6,0.333l0.532,0.333l1.799,0.599l0.533,0.133l0.599,0.067l1.399,0.133l0.599,0l2.465,-0.266l0.599,-0.133l0.6,-0.2l0.533,-0.133l0.599,-0.2l0.6,-0.267l0.532,-0.266l0.467,-0.267l0.999,-0.599l0.599,-0.4l0.533,-0.333l0.933,-0.799l0.399,-0.4l0.466,-0.333l0.533,-0.133l1.199,0.133l0.733,0.067l1.066,0l0.599,-0.067l0.666,-0.066l0.6,-0.067l0.533,-0.133l0.599,-0.2l1.132,-0.466l0.533,-0.267l0.466,-0.333l0.467,-0.466l0.532,-0.466l0.467,-0.4l0.399,-0.333l0.4,-0.399l0.4,-0.467l0.399,-0.532l0.333,-0.533l0.4,-0.6l0.266,-0.333l0.4,-0.533l0.333,-0.533l0.267,-0.532l0.333,-0.533l0.532,-1.066l0.2,-0.599l-0.133,-0.733l-0.533,-0.6l-0.799,-0.133l-0.533,0.333l-0.333,0.533l-0.2,0.533l-0.333,0.599l-0.266,0.533l-0.333,0.467l-0.666,1.065l-0.4,0.533l-0.333,0.533l-0.333,0.466l-0.933,0.933l-0.466,0.333l-0.932,0.799l-0.533,0.333l-0.6,0.2l-0.533,0.2l-0.599,0.2l-0.599,0.066l-0.667,0.067l-0.599,0.066l-0.466,-0.133l-0.133,-0.266l0.199,-0.467l0.4,-0.532l0.533,-1.199l0.266,-0.533l0.2,-0.6l0.533,-1.199l0.133,-0.599l0.4,-1.199l0.266,-1.199l0.067,-0.666l0.266,-1.199l0.067,-0.666l0.067,-0.599l0,-0.6l0.066,-0.599l0,-0.6l-0.066,-0.599l-0.067,-0.666l-0.133,-0.6l-0.067,-0.533l-0.2,-0.599l-0.133,-0.6l-0.266,-0.532l-0.2,-0.6l-0.333,-0.533l-0.4,-0.466l-0.333,-0.466l-0.799,-0.933l-0.466,-0.333l-0.533,-0.333l-0.6,-0.266l-0.533,-0.267l-1.199,-0.266l-0.666,-0.067l-0.866,0l-1.132,0.067l-1.066,0.2l-0.865,0.133l-0.666,0.2l-0.8,0.266l-0.732,0.333l-0.6,0.267l-0.733,0.466l-0.666,0.4l-0.533,0.466l-0.599,0.266l-0.333,0.067l0.067,-0.4l0.199,-0.599l0.067,-0.533l0.2,-0.6l0.133,-0.599l0.2,-0.533l0.4,-1.199l0.133,-0.533l0.2,-0.599l0.133,-0.6l0.2,-0.599l0.266,-0.6l0.266,-0.799l0.333,-0.799l0.4,-1.199l0.2,-0.533l0.133,-0.599l0.2,-0.6l0.133,-0.533l0.4,-1.199l0.266,-0.532l0.267,-0.6l0.266,-0.533l0.2,-0.533l0.2,-0.599l0.2,-0.533l0.266,-0.666l0.133,-0.4l0.267,-0.666l0.133,-0.533l-0.133,-0.532l-0.467,-0.4l-0.532,-0.267l-0.6,-0.199l-0.666,-0.2l-1.199,-0.133l-0.666,0.133l0,0ZM67.673,21.914l1.199,0.133l0.532,0.067l0.6,0.199l1.066,0.533l0.466,0.4l0.333,0.533l0.266,0.533l0.267,1.198l0.066,0.6l0,1.865l-0.199,1.798l-0.134,0.6l-0.066,0.599l-0.134,0.6l-0.599,1.798l-0.2,0.533l-0.133,0.599l-0.2,0.6l-0.266,0.533l-0.267,0.399l-0.399,0.134l-0.467,-0.134l-0.532,-0.066l-0.6,0.133l-0.666,0.466l-0.533,0.6l-0.133,0.666l0.133,0.799l0.333,0.733l0.267,0.533l0,0.466l-0.267,0.399l-0.466,0.4l-0.533,0.333l-0.466,0.333l-0.533,0.4l-0.533,0.266l-0.533,0.2l-1.199,0.266l-1.199,0.134l-1.198,-0.134l-0.533,-0.199l-0.533,-0.333l-0.933,-0.8l-0.266,-0.533l-0.267,-0.599l-0.199,-0.799l-0.134,-0.866l0,-1.266l-0.066,-0.599l0,-0.6l0.066,-0.599l0,-0.6l0.067,-0.666l0.133,-0.866l0.2,-0.799l0.133,-0.666l0.133,-0.599l0.2,-0.6l0.2,-0.799l0.2,-0.866l0.2,-0.599l0.133,-0.6l0.2,-0.533l0.2,-0.599l0.199,-0.533l0.333,-0.466l0.467,-0.533l0.333,-0.267l0.533,-0.466l0.466,-0.333l0.999,-0.666l0.466,-0.333l0.533,-0.266l0.6,-0.267l0.532,-0.266l0.666,-0.2l0.4,-0.133l0.666,-0.2l0.6,-0.133l0,0Z" style="fill:#fff;fill-opacity:0.501961;fill-rule:nonzero;"/><path d="M89.053,12.056l-0.133,0.666l-0.066,0.599l0.066,0.6l0.133,0.599l0.333,0.533l0.4,0.466l1.066,0.666l0.666,0.134l0.599,0.066l0.666,-0.133l0.6,-0.266l0.533,-0.4l0.466,-0.4l0.4,-0.532l0.333,-0.533l0.2,-0.6l0,-0.666l-0.067,-0.599l-0.2,-0.6l-0.333,-0.533l-0.466,-0.466l-0.466,-0.4l-0.533,-0.333l-0.6,-0.133l-0.666,0l-0.599,0.133l-0.666,0.2l-0.533,0.333l-0.533,0.467l-0.333,0.532l-0.267,0.6l0,0ZM99.511,31.239l-0.866,-0.134l-0.6,0.333l-0.333,0.533l-0.799,1.599l-0.533,1.132l-0.266,0.6l-0.4,0.599l-0.333,0.533l-0.266,0.4l-0.4,0.466l-0.666,1.066l-0.4,0.532l-0.333,0.467l-0.399,0.466l-2.198,2.198l-0.533,0.4l-0.466,0.333l-0.6,0.266l-0.599,0.067l-0.733,-0.2l-0.533,-0.733l-0.133,-0.999l0.133,-1.132l0.2,-1.066l0.2,-0.866l0.133,-0.599l0.4,-1.199l0.466,-1.665l0.133,-0.6l0.466,-1.132l0.133,-0.6l0.134,-0.532l0.133,-0.6l0.466,-1.399l0.267,-0.866l0.133,-0.599l0.666,-1.998l0.2,-0.8l0.2,-0.666l0.133,-0.599l0.133,-0.533l0.4,-1.199l0.199,-0.866l0.2,-0.799l0.133,-0.599l0,-0.6l-0.333,-0.466l-1.065,-0.4l-1.199,-0.133l-0.666,-0.067l-0.533,0.067l-0.6,0.266l-0.399,0.333l-0.267,0.533l-0.199,0.6l-0.267,0.866l-0.2,0.799l-0.2,0.599l-0.399,1.799l-0.2,0.533l-0.266,0.666l-0.134,0.599l-0.133,0.466l-0.133,0.6l-0.4,1.199l-0.2,0.866l-0.199,0.799l-0.4,1.199l-0.133,0.533l-0.133,0.599l-0.2,0.6l-0.133,0.599l-0.067,0.533l-0.6,1.798l-0.199,0.533l-0.2,0.6l-0.133,0.599l-0.2,0.533l-0.267,1.199l-0.199,0.599l-0.134,0.6l-0.133,1.199l0,0.599l0.067,0.6l0.133,0.599l0.133,0.533l0.267,0.599l0.333,0.533l0.333,0.467l0.466,0.399l0.533,0.333l0.599,0.2l0.533,0.2l0.733,0.066l1.132,0l1.199,-0.266l0.533,-0.133l0.599,-0.2l0.6,-0.266l0.466,-0.333l1.465,-1.133l0.467,-0.399l0.399,-0.467l0.466,-0.466l0.8,-0.866l1.199,-1.399l0.666,-1.065l0.333,-0.466l0.399,-0.533l0.333,-0.467l0.334,-0.532l0.333,-0.6l0.199,-0.4l0.4,-0.599l0.266,-0.533l0.333,-0.599l0.6,-0.999l0.533,-1.066l0.2,-0.6l0,-0.732l-0.533,-0.666l0,0Z" style="fill:#fff;fill-opacity:0.501961;fill-rule:nonzero;"/><path d="M129.217,46.958l1.333,0l0.666,-0.067l0.533,-0.133l0.599,-0.2l1.599,-0.799l0.532,-0.333l0.933,-0.799l0.4,-0.4l0.399,-0.466l0.866,-0.866l0.733,-0.933l0.399,-0.532l0.666,-1l0.333,-0.466l1,-1.598l0.333,-0.467l0.333,-0.533l0.399,-0.666l0.467,-0.799l0.599,-1.199l0.266,-0.466l0.2,-0.533l0.333,-0.599l0.267,-0.6l0,-0.666l-0.533,-0.666l-0.799,-0.133l-0.6,0.333l-0.266,0.533l-0.4,0.599l-0.2,0.333l-0.599,1.199l-0.267,0.6l-2.331,3.73l-0.4,0.532l-0.333,0.333l-0.799,1.066l-0.333,0.466l-0.932,0.933l-0.467,0.333l-0.532,0.4l-0.533,0.266l-0.467,0.266l-0.532,0.134l-0.667,0.066l-0.399,-0.399l-0.2,-0.8l-0.067,-1.065l0.134,-1.133l0.133,-0.866l0.133,-0.666l0.333,-1.598l0.2,-0.666l0.2,-0.8l0.266,-0.799l0.2,-0.666l0.2,-0.733l0.133,-0.865l0.2,-0.6l0.266,-0.866l0.999,-3.197l0.2,-0.866l0.267,-1.199l0.066,-0.666l0.067,-0.599l0,-1.199l-0.067,-0.533l-0.066,-0.6l-0.2,-0.599l-0.133,-0.533l-0.267,-0.533l-0.333,-0.533l-0.4,-0.399l-0.599,-0.4l-0.799,-0.333l-0.8,-0.2l-0.599,-0.133l-0.599,0l-0.467,0.067l-1.132,0.066l-0.799,0.134l-0.6,0.133l-0.599,0.266l-0.533,0.267l-0.466,0.333l-0.533,0.399l-0.999,0.8l-0.467,0.333l-0.399,0.466l-0.866,0.999l-0.267,0.333l-0.466,0.533l-0.732,0.932l-0.4,0.467l-0.4,0.532l-0.266,0.333l-0.067,0l0.067,-0.466l0.066,-0.866l0.067,-0.799l0,-0.599l-0.067,-0.6l-0.199,-0.599l-0.2,-0.533l-0.533,-1.066l-0.4,-0.466l-0.399,-0.4l-0.467,-0.333l-0.532,-0.266l-0.533,-0.2l-0.6,-0.133l-0.599,-0.067l-1.133,0l-0.666,0.067l-0.666,0.2l-0.533,0.199l-0.599,0.267l-0.533,0.333l-0.466,0.333l-1.066,0.733l-0.932,0.799l-0.333,0.399l-0.4,0.4l-0.466,0.6l-0.4,0.466l-0.333,0.533l-0.4,0.466l-0.333,0.533l-0.399,0.533l-0.333,0.599l-0.267,0.133l0.067,-0.399l0.266,-1.199l0.2,-0.6l0.133,-0.666l0.2,-0.599l0.133,-0.6l0.2,-0.599l0.2,-0.666l0.067,-0.6l-0.267,-0.466l-0.533,-0.4l-0.599,-0.266l-0.666,-0.133l-1.332,-0.133l-0.666,0.133l-0.666,0.2l-0.467,0.333l-0.266,0.599l-0.2,0.533l-0.666,2.997l-0.133,0.533l-0.267,1.199l-0.266,0.866l-0.266,0.799l-0.134,0.6l-0.2,0.599l-0.066,0.6l-0.133,0.599l-0.2,0.599l-0.2,0.8l-0.2,0.866l-0.399,1.199l-0.134,0.599l-0.199,0.799l-0.2,0.866l-0.2,0.6l-0.133,0.599l-0.2,0.533l-0.133,0.599l-0.2,0.6l-0.133,0.533l-0.4,1.199l-0.133,0.599l-0.2,0.799l-0.2,0.866l-0.133,0.6l-0.2,0.666l-0.133,0.4l-0.267,0.666l-0.133,0.599l0.133,0.799l0.666,0.666l1.066,0.4l1.066,0.067l1.132,-0.067l0.933,-0.466l0.466,-0.6l0.2,-0.666l0.2,-0.599l0.133,-0.6l0.133,-0.466l0.133,-0.599l0.2,-0.666l0.133,-0.667l0.2,-0.599l0.267,-1.199l0.199,-0.599l0.4,-1.799l0.133,-0.666l0.133,-0.599l0.4,-1.199l0.133,-0.6l0.2,-0.599l0.267,-0.6l0.865,-1.731l0.467,-0.733l0.399,-0.6l0.467,-0.666l0.466,-0.732l0.266,-0.333l0.4,-0.6l0.266,-0.533l0.333,-0.466l0.4,-0.466l0.599,-0.6l0.6,-0.532l0.932,-0.8l0.467,-0.466l0.666,-0.4l0.799,-0.333l0.599,-0.133l0.8,0.133l0.666,0.333l0.399,0.533l0.067,0.866l0,1.132l-0.2,1.066l-0.133,0.866l-0.2,0.666l-0.2,0.799l-0.399,1.399l-0.133,0.533l-0.2,0.666l-0.134,0.799l-0.199,0.8l-0.2,0.599l-0.2,0.533l-0.4,1.798l-0.399,1.599l-0.133,0.666l-0.2,0.866l-0.267,1.066l-0.333,1.065l-0.2,0.866l-0.266,0.666l-0.2,0.8l-0.133,0.799l-0.067,0.666l-0.066,0.599l0.333,0.4l0.533,0.266l0.599,0.134l0.666,0l0.666,0.066l0.666,-0.066l0.6,-0.134l0.599,-0.266l0.4,-0.4l0.266,-0.533l0.2,-0.599l0.133,-0.533l0.2,-0.599l0.267,-0.866l0.266,-1.066l0.2,-0.866l0.066,-0.666l0.4,-1.598l0.2,-0.666l0.266,-0.8l0.2,-0.799l0.2,-0.666l0.2,-0.799l0.266,-0.8l0.133,-0.599l0.4,-1.199l0.2,-0.533l0.599,-1.066l0.267,-0.599l0.266,-0.533l0.333,-0.533l0.4,-0.466l0.333,-0.533l0.333,-0.466l0.333,-0.533l0.4,-0.533l0.399,-0.466l0.467,-0.4l0.399,-0.466l0.933,-0.799l0.533,-0.4l1.598,-0.999l0.533,-0.2l0.599,-0.133l0.666,0.067l0.533,0.133l0.4,0.399l0.266,0.533l0.067,0.6l-0.067,0.666l-0.066,0.599l-0.4,1.799l-0.066,0.599l-0.267,1.199l-0.133,0.533l-0.2,0.599l-0.133,0.6l-0.2,0.599l-0.133,0.6l-0.267,0.866l-0.199,0.799l-0.134,0.599l-0.199,0.6l-0.134,0.599l-0.199,0.6l-0.134,0.533l-0.2,0.732l-0.133,0.6l-0.133,0.466l-0.266,1.199l-0.134,1.199l-0.066,0.666l-0.133,1.199l0.066,0.666l0.067,0.599l0.2,0.6l0.333,0.533l0.799,0.932l0.533,0.4l0.533,0.266l0.599,0.2l0.6,0.133l0.532,0.067Z" style="fill:#fff;fill-opacity:0.501961;fill-rule:nonzero;"/><path d="M174.111,33.037l0.266,-0.599l-0.067,-0.666l-0.533,-0.667l-0.799,-0.133l-0.599,0.333l-1.332,2.665l-0.333,0.532l-0.267,0.533l-1.066,1.599l-0.133,0.399l-0.399,0.533l-0.333,0.533l-0.667,0.933l-0.799,0.932l-0.799,0.866l-0.466,0.466l-0.933,0.666l-0.599,0.333l-0.8,0.267l-0.999,-0.067l-0.666,-0.333l-0.333,-0.533l-0.066,-0.866l0.066,-0.999l0.2,-1.132l0.2,-0.999l0.133,-0.733l0.133,-0.666l0.2,-0.799l0.267,-1.132l0.133,-0.6l0.2,-0.799l0.066,-0.4l0.133,-0.666l0.4,-1.199l0.133,-0.533l0.2,-0.599l0.266,-1.199l0.2,-0.6l0.134,-0.599l0.199,-0.533l-0.066,-0.599l-0.267,-0.4l-0.533,-0.333l-1.065,-0.533l-0.6,-0.133l-0.599,-0.067l-0.6,0.134l-0.666,0.333l-0.399,0.599l-0.2,0.666l-0.267,0.733l-0.399,1.332l-0.267,0.733l-0.2,0.599l-0.199,0.533l-0.267,0.599l-0.133,0.467l-0.266,0.599l-0.8,1.732l-0.266,0.4l-0.466,0.865l-0.4,0.733l-0.999,1.599l-0.333,0.466l-0.733,0.999l-0.333,0.466l-0.399,0.467l-0.334,0.466l-0.399,0.466l-0.466,0.4l-0.4,0.399l-0.933,0.8l-1.065,0.532l-0.6,0.2l-0.866,0.067l-0.799,-0.133l-0.599,-0.267l-0.4,-0.399l-0.333,-0.533l-0.266,-0.533l-0.2,-0.6l-0.067,-0.666l0,-1.865l0.2,-1.798l0.2,-0.666l0.399,-1.799l0.267,-0.532l0.266,-0.6l0.4,-1.199l0.333,-0.533l0.799,-1.598l0.333,-0.533l0.333,-0.466l0.8,-0.933l0.333,-0.466l0.399,-0.466l0.466,-0.533l0.267,-0.267l0.533,-0.466l0.466,-0.399l0.466,-0.333l0.533,-0.334l0.466,-0.333l0.666,-0.399l0.667,-0.333l1.665,-0.6l0.866,-0.199l0.666,-0.067l0.466,-0.067l1.332,0l0.666,0.134l0.666,0.199l1.132,0.267l0.533,0.133l0.6,0.266l0.533,0.267l0.466,0.2l0.533,0.333l0.599,0.333l0.533,0.399l0.533,0.2l0.533,-0.066l0.732,-0.467l0.733,-0.799l0.267,-0.932l-0.134,-0.733l-0.399,-0.466l-0.467,-0.4l-0.466,-0.333l-0.466,-0.4l-2.664,-1.199l-0.733,-0.199l-0.599,-0.134l-1.466,-0.266l-1.532,-0.133l-1.332,-0.067l-0.799,0l-0.6,0.067l-1.665,0.133l-0.666,0.2l-0.799,0.2l-0.799,0.266l-0.667,0.333l-0.732,0.4l-0.799,0.333l-0.6,0.266l-0.466,0.333l-0.533,0.333l-0.933,0.733l-0.732,0.533l-0.6,0.599l-0.932,0.799l-0.466,0.533l-0.267,0.267l-0.866,0.999l-0.399,0.466l-0.666,0.933l-0.333,0.532l-0.334,0.467l-0.333,0.533l-1.598,3.197l-0.2,0.599l-0.266,0.533l-0.2,0.599l-0.2,0.866l-0.2,0.8l-0.2,0.666l-0.133,0.799l-0.066,0.866l-0.067,0.666l0,0.866l0.067,1.066l0.133,0.865l0.066,0.667l0.2,0.865l0.4,1l0.399,0.732l0.333,0.533l0.334,0.466l0.932,0.8l0.466,0.333l0.533,0.199l0.6,0.2l0.799,0.2l0.799,0.133l0.666,0.067l1.199,-0.133l0.866,-0.2l1.066,-0.333l0.999,-0.466l0.733,-0.467l0.532,-0.333l0.467,-0.333l0.466,-0.399l0.4,-0.4l0.466,-0.4l0.333,-0.466l0.399,-0.466l0.333,-0.466l0.4,-0.467l0.666,-0.932l0.666,-1.066l0.333,-0.466l0.2,0.133l-0.067,0.799l-0.066,0.866l0,0.666l0.066,0.866l0.2,0.8l0.2,0.599l0.466,0.733l0.467,0.666l0.466,0.399l0.466,0.333l0.6,0.2l0.799,0.2l0.799,0.067l0.666,0l0.6,-0.134l0.599,-0.199l0.799,-0.333l0.733,-0.333l0.6,-0.334l0.532,-0.333l1.865,-1.598l0.4,-0.4l0.4,-0.466l0.732,-0.932l0.4,-0.467l0.4,-0.533l0.399,-0.466l0.333,-0.533l0.267,-0.533l0.333,-0.532l0.333,-0.467l0.666,-1.065l0.266,-0.533l0.267,-0.6l0.266,-0.533l0.333,-0.466l0.333,-0.666l0.133,-0.333l0.334,-0.666l0,0Z" style="fill:#fff;fill-opacity:0.501961;fill-rule:nonzero;"/><path d="M176.442,18.117l0.133,0.533l0,0.599l-0.133,0.666l-0.2,0.6l-0.133,0.599l-0.133,0.533l-0.134,0.6l-0.266,0.599l-0.133,0.6l-0.2,0.599l-0.133,0.6l-0.533,1.198l-0.2,0.533l-0.2,0.6l-0.266,0.599l-0.2,0.6l-0.267,0.533l-0.266,0.666l-0.2,0.399l-0.533,1.199l-0.199,0.6l-0.2,0.533l-0.267,0.599l-0.2,0.599l-0.066,0.533l0.399,0.467l0.533,0.333l0.6,0l0.399,-0.333l0.333,-0.533l0.4,-0.733l0.333,-0.733l0.333,-0.666l0.333,-0.732l0.333,-0.8l0.267,-0.599l0.333,-0.733l0.333,-0.799l0.2,-0.6l0.199,-0.532l0.2,-0.6l0.6,-1.598l0.2,-0.6l0.133,-0.533l0.133,-0.599l0.2,-0.6l0.133,-0.599l0.266,-0.6l0.533,-0.133l0.533,0.4l0.4,0.466l1.065,1.199l0.4,0.533l0.666,1.066l0.133,0.799l-0.199,0.999l-0.333,0.733l-0.733,1.065l-0.533,0.933l-0.4,0.533l-0.533,0.732l-0.399,0.733l-0.333,0.6l-0.466,0.666l-0.467,0.732l-0.333,0.6l-0.399,0.732l-0.333,0.733l-0.267,0.6l-0.2,0.532l-0.199,0.6l-0.267,2.398l0,0.599l0.067,0.6l0.133,0.599l0.133,0.666l0.133,0.6l0.267,0.532l0.266,0.6l0.333,0.466l0.4,0.533l0.4,0.4l0.466,0.399l0.999,0.666l0.666,0.333l0.533,0.2l1.332,0.267l0.866,0.066l1.532,0l0.666,-0.133l0.533,-0.133l0.599,-0.2l0.533,-0.266l0.6,-0.267l1.065,-0.533l0.6,-0.399l0.533,-0.4l0.799,-0.799l0.466,-0.4l0.799,-0.932l0.467,-0.666l0.532,-0.733l0.8,-1.066l0.666,-1.066l0.333,-0.599l0.266,-0.333l0.333,-0.6l0.666,-1.065l0.533,-1.066l0.333,-0.533l0.267,-0.533l0.533,-1.132l0.199,-0.599l0,-0.733l-0.599,-0.666l-0.866,-0.2l-0.599,0.333l-0.267,0.533l-0.2,0.533l-0.266,0.533l-0.4,0.732l-0.2,0.4l-0.333,0.599l-0.266,0.533l-0.333,0.533l-0.333,0.6l-0.333,0.466l-0.999,1.598l-1.199,1.399l-0.4,0.533l-0.399,0.4l-0.467,0.399l-0.533,0.4l-0.999,0.666l-0.466,0.333l-0.599,0.266l-0.6,0.2l-0.599,0.133l-1.266,0l-0.666,-0.133l-0.533,-0.333l-0.466,-0.399l-0.333,-0.6l-0.333,-0.533l-0.267,-1.332l0,-0.666l0.067,-0.599l0.133,-0.6l0.134,-0.666l0.133,-0.599l0.2,-0.533l0.199,-0.6l1.133,-2.264l0.333,-0.533l0.399,-0.533l0.333,-0.533l0.4,-0.533l0.333,-0.466l0.333,-0.533l0.4,-0.466l0.666,-1.066l0.399,-0.466l0.267,-0.533l0.2,-0.599l0.066,-0.6l-0.199,-0.866l-0.2,-0.799l-0.2,-0.6l-0.666,-1.065l-0.4,-0.466l-0.466,-0.4l-0.466,-0.533l-0.267,-0.333l-0.466,-0.533l-0.866,-0.866l-0.466,-0.399l-0.733,-0.866l-0.466,-0.533l-0.466,-0.4l-0.467,-0.466l-0.333,-0.466l-0.133,-0.533l0,-0.533l0.133,-0.666l0,-1.798l-0.199,-0.6l-0.267,-0.533l-0.4,-0.399l-0.532,-0.333l-0.6,-0.134l-0.599,0l-0.6,0.134l-0.533,0.266l-0.466,0.4l-0.399,0.466l-0.334,0.466l-0.266,0.6l-0.133,0.599l0,0.6l0.066,0.599l0.6,1.798l0.533,1.066Z" style="fill:#fff;fill-opacity:0.501961;fill-rule:nonzero;"/><path d="M225.531,33.104l0.2,-0.6l0,-0.732l-0.466,-0.667l-0.8,-0.133l-0.599,0.333l-0.333,0.467l-0.267,0.599l-0.865,1.732l-0.134,0.333l-0.333,0.666l-0.333,0.533l-0.399,0.466l-0.999,1.599l-1.466,1.998l-0.333,0.466l-0.866,0.866l-0.932,0.799l-1.066,0.666l-0.533,0.267l-0.599,0.199l-0.666,0.134l-0.666,0l-0.866,-0.067l-0.933,-0.4l-0.866,-0.732l-0.666,-0.866l-0.466,-0.999l-0.2,-0.8l-0.133,-0.599l-0.067,-0.866l-0.066,-1.066l-0.067,-0.865l0.067,-0.533l0.266,-0.4l0.6,-0.333l0.399,-0.067l0.666,-0.266l0.6,-0.266l0.533,-0.267l0.466,-0.266l0.999,-0.6l0.533,-0.333l0.466,-0.333l0.999,-0.799l0.466,-0.4l0.4,-0.266l0.466,-0.4l0.4,-0.399l0.4,-0.467l0.399,-0.533l0.333,-0.532l0.467,-0.667l0.399,-0.732l0.267,-0.6l0.199,-0.533l0.2,-0.599l0.133,-0.866l0.134,-0.799l0,-0.6l-0.067,-0.599l-0.133,-0.6l-0.133,-0.532l-0.267,-0.6l-0.333,-0.533l-0.399,-0.466l-0.4,-0.333l-0.466,-0.4l-0.467,-0.333l-0.599,-0.199l-1.199,-0.267l-0.599,0l-1.865,0.067l-0.667,0.133l-0.599,0.133l-0.466,0.133l-0.6,0.2l-0.533,0.333l-1.598,0.866l-1.066,0.666l-0.599,0.466l-0.467,0.333l-0.399,0.333l-0.866,0.866l-0.333,0.467l-0.799,0.932l-0.6,0.799l-0.133,0l0.133,-0.399l0.133,-0.6l0.2,-0.599l0.2,-0.533l0.4,-1.798l0.199,-0.6l0.267,-0.533l0.133,-0.599l0.2,-0.6l0.133,-0.599l0.133,-0.533l0.4,-1.199l0.2,-0.533l0.2,-0.599l0.199,-0.533l0.2,-0.6l0.2,-0.532l0.4,-1.199l0.399,-1.133l0.4,-1.199l0.2,-0.532l0.2,-0.6l0.2,-0.666l0.133,-0.4l0.266,-0.666l0.133,-0.599l0.2,-0.533l0.4,-1.199l0.2,-0.533l0.333,-0.599l0.133,-0.4l0.266,-0.599l0.134,-0.6l-0.2,-0.466l-0.467,-0.4l-0.666,-0.266l-0.399,-0.133l-0.733,-0.2l-0.599,-0.067l-0.6,0l-0.599,0.067l-0.467,0.399l-0.466,0.667l-0.333,0.799l-0.266,0.599l-0.267,0.533l-0.266,0.6l-0.2,0.532l-0.266,0.533l-0.2,0.533l-0.267,0.6l-0.199,0.533l-0.2,0.666l-0.133,0.399l-0.267,0.666l-0.133,0.467l-0.267,0.532l-0.266,0.666l-0.2,0.6l-0.2,0.533l-0.133,0.599l-0.2,0.6l-0.199,0.533l-0.134,0.599l-0.2,0.599l-0.133,0.6l-0.133,0.533l-0.4,1.199l-0.532,1.665l-0.2,0.599l-0.2,0.533l-0.4,1.199l-0.133,0.533l-0.4,1.798l-0.199,0.6l-0.134,0.599l-0.133,0.533l-0.133,0.6l-0.2,0.599l-0.133,0.6l-0.2,0.532l-0.133,0.6l-0.4,1.199l-0.133,0.533l-0.133,0.599l-0.2,0.6l-0.133,0.599l-0.133,0.533l-0.267,1.199l-0.2,0.599l-0.266,1.133l-0.2,0.599l-0.266,1.199l-0.067,0.599l-0.133,0.533l-0.067,0.6l-0.2,0.599l-0.133,0.6l-0.2,0.599l-0.066,0.6l-0.133,0.532l-0.2,0.6l-0.133,0.599l-0.2,0.6l-0.067,0.599l-0.266,1.199l0.066,0.8l0.333,0.599l0.6,0.266l0.799,0.134l1.066,-0.067l1.132,-0.266l0.866,-0.533l0.466,-0.6l0.267,-0.599l0.066,-0.6l0.133,-0.599l0.067,-0.6l0.4,-1.798l0.133,-0.733l0.133,-0.333l0.2,-0.732l0.067,-0.6l0.133,-0.599l0.133,-0.533l0.2,-0.6l0.133,-0.599l0.2,-0.6l0.133,-0.599l0.2,-0.866l0.2,-0.799l0.2,-0.6l0.266,-0.599l0.533,-1.066l0.2,-0.599l0.333,-0.533l0.266,-0.533l0.4,-0.533l0.399,-0.599l0.267,-0.333l0.399,-0.533l0.4,-0.466l0.333,-0.467l0.466,-0.466l0.6,-0.533l0.866,-0.732l0.932,-0.667l0.533,-0.333l0.466,-0.333l0.533,-0.266l0.6,-0.266l0.533,-0.2l1.198,-0.267l0.666,-0.066l0.6,0.133l0.533,0.2l0.533,0.333l0.399,0.466l0.2,0.799l0.067,0.8l-0.2,0.599l-0.2,0.533l-0.266,0.533l-0.333,0.533l-0.333,0.466l-0.4,0.466l-0.799,0.799l-2.398,1.799l-0.733,0.466l-0.666,0.466l-1.665,0.8l-0.533,0.333l-0.599,0.266l-0.666,0.4l-0.467,0.466l-0.2,0.599l0,0.6l0.067,0.599l0,1.865l0.133,1.199l0.067,0.666l0.066,0.6l0.267,1.199l0.2,0.599l0.2,0.533l0.532,1.132l0.666,1.066l0.334,0.466l0.466,0.4l0.466,0.333l0.533,0.333l0.533,0.266l0.599,0.2l0.533,0.2l0.6,0.067l0.732,0.066l1.132,0l0.6,-0.066l0.599,-0.2l1.133,-0.333l0.533,-0.2l1.065,-0.666l0.933,-0.666l0.866,-0.866l0.466,-0.4l0.533,-0.533l1.465,-1.665l0.4,-0.466l0.333,-0.466l0.999,-1.599l0.466,-0.666l0.466,-0.733l0.666,-1.065l0.267,-0.6l0.333,-0.732l0.666,-1.333l0.333,-0.532l0,0Z" style="fill:#fff;fill-opacity:0.501961;fill-rule:nonzero;"/></g></svg>